# xmcd
#
# Track frame offsets:
#	150
#	23411
#	44404
#	65686
#	87086
#	110201
#	136456
#	160390
#	184968
#	205242
#	224692
#	242937
#	261747
#	280559
#
# Disc length: 4052 seconds
# Revision: 0
# Processed by: cddbd v1.5.2PL0 Copyright (c) Steve Scherf et al.
# Submitted via: dBpowerAMP V12.0
#
DISCID=de0fd20e
DTITLE=Various Artist - Nhung tinh khuc chon loc
DYEAR=2006
DGENRE=Pop
TTITLE0=Tran Thai Hoa - Roi mai toi dua em
TTITLE1=Tran Thai Hoa - Em gang cho
TTITLE2=Tran Thai Hoa - Thu ve trong mat em
TTITLE3=Tran Thai Hoa - Bai khong ten so 8
TTITLE4=Tran Thai Hoa - Nhat nhoa
TTITLE5=Tran Thai Hoa - Tren ngon tinh sau
TTITLE6=Tran Thai Hoa and Ngoc Ha - Toc mai soi van soi dai
TTITLE7=Tran Thai Hoa - Noi dau tu day
TTITLE8=Tran Thai Hoa - Toi di giua hoang hon
TTITLE9=Tran Thai Hoa - Paris and em
TTITLE10=Tran Thai Hoa - Nho mot chieu xuan
TTITLE11=Tran Thai Hoa - Biet bao gio tro lai
TTITLE12=Tran Thai Hoa and Nhu Quynh - Hoa buom ngay xua
TTITLE13=Tran Thai Hoa - Xuan tha huong
EXTD=
EXTT0=
EXTT1=
EXTT2=
EXTT3=
EXTT4=
EXTT5=
EXTT6=
EXTT7=
EXTT8=
EXTT9=
EXTT10=
EXTT11=
EXTT12=
EXTT13=
PLAYORDER=
